<svg width="41" height="41" viewBox="0 0 41 41" fill="none" xmlns="http://www.w3.org/2000/svg">
<path d="M14.8958 0C18.8465 0 22.6353 1.56938 25.4288 4.36289C28.2223 7.1564 29.7917 10.9452 29.7917 14.8958C29.7917 18.5854 28.4396 21.9771 26.2167 24.5896L26.8354 25.2083H28.6458L40.1042 36.6667L36.6667 40.1042L25.2083 28.6458V26.8354L24.5896 26.2167C21.8867 28.5239 18.4495 29.7914 14.8958 29.7917C10.9452 29.7917 7.1564 28.2223 4.36289 25.4288C1.56938 22.6353 0 18.8465 0 14.8958C0 10.9452 1.56938 7.1564 4.36289 4.36289C7.1564 1.56938 10.9452 0 14.8958 0ZM14.8958 4.58333C9.16667 4.58333 4.58333 9.16667 4.58333 14.8958C4.58333 20.625 9.16667 25.2083 14.8958 25.2083C20.625 25.2083 25.2083 20.625 25.2083 14.8958C25.2083 9.16667 20.625 4.58333 14.8958 4.58333Z" fill="#091646"/>
</svg>
